<?xml version="1.0" encoding="utf-8"?>
<!-- Generator: Adobe Illustrator 28.2.0, SVG Export Plug-In . SVG Version: 6.00 Build 0)  -->
<svg version="1.1" id="Layer_1" xmlns="http://www.w3.org/2000/svg" xmlns:xlink="http://www.w3.org/1999/xlink" x="0px" y="0px"
	 viewBox="0 0 7050.8 7050.8" style="enable-background:new 0 0 7050.8 7050.8;" xml:space="preserve">
<style type="text/css">
	.st0{fill:#FFFFFF;}
</style>
<path class="st0" d="M4079.8,2124.4v546.8h686v196h-686v1614.4c0,165.1,26.6,291.4,80,379.1c53.3,87.7,145.2,131.5,276,131.5
	c61.9,0,115.2-3.4,159.9-10.3c44.7-6.8,82.5-15.5,113.5-25.8l25.8,185.7c-82.5,37.8-192.6,56.8-330.1,56.8
	c-113.5,0-207.2-19-281.1-56.8c-74-37.8-132.4-90.2-175.4-157.3s-73.1-147.8-90.3-242.4c-17.3-94.5-25.8-196.8-25.8-306.9v-1568
	h-407.5v-196h407.5v-454L4079.8,2124.4L4079.8,2124.4z M5163,2671.1l567.4,1537.1c48.1,120.4,91.1,233.9,128.9,340.4
	c37.8,106.6,73.9,211.5,108.3,314.6h10.3c34.3-99.7,71.3-203.8,110.9-312.1c39.5-108.3,83.4-222.6,131.5-343L6792.8,2671h257.9
	l-985.2,2475.8H5854l-948.9-2475.7L5163,2671.1L5163,2671.1z"/>
<g>
	<path class="st0" d="M1505.2,2143.4c219.9-289.8,525.6-291.2,525.6-291.2s45.5,272.5-173,534.9
		c-233.2,280.3-498.3,234.4-498.3,234.4S1309.7,2401.1,1505.2,2143.4L1505.2,2143.4z M1387.4,2812.4c113.1,0,323-155.5,596.3-155.5
		c470.4,0,655.4,334.7,655.4,334.7s-361.9,185-361.9,634c0,506.5,450.8,681,450.8,681s-315.1,887-740.8,887
		c-195.5,0-347.5-131.8-553.5-131.8c-209.9,0-418.3,136.7-553.9,136.7C491.1,5198.6,0,4357.1,0,3680.8
		c0-665.5,415.7-1014.6,805.5-1014.6C1059,2666.2,1255.7,2812.4,1387.4,2812.4z"/>
</g>
</svg>
