<?xml version="1.0" encoding="utf-8"?>
<!-- Generator: Adobe Illustrator 28.2.0, SVG Export Plug-In . SVG Version: 6.00 Build 0)  -->
<svg version="1.1" id="Layer_1" xmlns="http://www.w3.org/2000/svg" xmlns:xlink="http://www.w3.org/1999/xlink" x="0px" y="0px"
	 viewBox="0 0 1667 1667" style="enable-background:new 0 0 1667 1667;" xml:space="preserve">
<style type="text/css">
	.st0{fill:#FFFFFF;}
</style>
<path class="st0" d="M0.4,1.7c-1.2,0.9-2,167.3-2,369.2v367.4l46.1,46.1c25.3,25.3,46.1,47.2,46.1,49s-20.7,23.6-46.1,49l-46.1,46.1
	V1667l834.5-0.6l834.2-0.9l0.9-366.9l0.6-366.9l-47.5-48.1c-26.2-26.5-47.5-49-47.5-50.1c0-1.2,21.3-23.6,47.5-50.1l47.5-48.1
	l-0.6-367.1l-0.9-367.1L834.6,0.2C376.8,0,1.3,0.6,0.4,1.7L0.4,1.7z M1564.3,395.4l0.6,290.8l-61.9,62.2
	c-65.9,66.2-69.4,71.1-65.9,93.6c1.4,10.4,8.4,18.1,63.1,73.4c35.4,35.7,62.2,65.1,63.4,69.1c0.9,4,1.2,135.3,0.9,292.3l-0.9,285.1
	l-730.6,0.9l-730.8,0.6l-0.3-285.7c-0.3-157.2,0-288.5,0.3-291.7s28.8-34.6,63.6-69.4l63.1-63.9v-38.6l-63.4-63.9l-63.4-63.9V396.8
	c0-159.2,0.9-290.6,2-291.4c0.9-1.2,329.7-1.7,730.6-1.4l728.8,0.9L1564.3,395.4z"/>
<path class="st0" d="M422.9,288.8c-5.2,4-5.5,10.1-6.3,230.1c-0.3,144.6,0.3,228.6,2.3,233.5l2.9,7.5h107.4
	c118.4,0,123.8-0.6,158.1-19.3c17.6-9.5,44.6-38.3,53.8-57.3c3.5-7.8,7.8-16.4,9.2-19c1.2-2.6,5.2-15,8.4-27.1
	c5.2-20.2,5.8-31.1,5.8-114.6c0-100.8-1.4-114-17.6-146.3c-22.7-46.6-56.7-73.4-109.1-86.1c-18.7-4.6-34-5.5-115.5-5.5
	C445.9,284.8,427.5,285.7,422.9,288.8L422.9,288.8z M619.5,386.7c12.1,6.6,21.3,19.6,27.4,39.2c4.3,13.5,5.2,28.2,5.2,98.2
	c0,74.9-0.6,84.4-5.8,101.4c-4.6,15-8.4,21-17.6,29.1c-13.8,11.5-29.1,14.1-74.6,12.7l-27.4-0.9l-0.9-143.1l-0.6-143.1l6.3-0.9
	c3.7-0.6,22.7-0.3,42.6,0.6C601.1,381,612.6,382.7,619.5,386.7z M1024.1,291.1c-5.5,6.3-12.4,21.6-17.9,41.2c-1.2,4.6-4,13.2-6,18.7
	c-1.7,5.5-4.9,14.7-6.9,20.2s-5.2,14.7-6.9,20.2c-2,5.5-4.6,13.8-6,18.7c-1.4,4.6-4,13.2-6,18.7c-1.7,5.5-4.9,14.7-6.9,20.2
	s-5.2,14.7-6.9,20.2c-2,5.5-4.6,13.8-6,18.7c-2.6,9.5-7.8,24.5-12.4,36c-1.4,4-3.7,10.9-4.9,15.8c-1.4,4.6-4,13.2-6,18.7
	c-1.7,5.5-4.9,14.7-6.9,20.2s-5.2,14.7-6.9,20.2c-2,5.5-4.6,13.8-6,18.7c-1.4,4.6-4,13.2-6,18.7c-1.7,5.5-4.9,14.7-6.9,20.2
	s-5.2,14.7-6.9,20.2c-2,5.5-4.6,13.8-6,18.7c-2.9,10.4-8.1,25.1-13.8,39.5c-3.7,9.8-3.7,11.5,0.6,18.1l4.6,7.2h91L973,750
	c2.6-5.8,6-15.3,7.5-21s4-14.7,5.5-19.3c1.7-4.9,5.5-16.4,8.4-25.9s6.3-18.1,8.1-19.3c1.4-1.2,37.4-2.3,79.8-2.3h76.9l4,7.8
	c2.3,4.6,6.9,17.9,10.4,29.7c19.6,65.7,13.5,60.5,70.8,60.5c45.5,0,47.5-0.3,50.7-6c3.2-6.3,1.7-15-7.5-40
	c-2-5.5-13.5-41.2-25.9-79.2c-12.1-38-23.9-73.7-25.9-79.2c-7.5-21.3-10.7-30.5-13-38.9c-1.4-4.9-4-13.2-6-18.7
	c-1.7-5.5-4.9-14.7-6.9-20.2s-5.2-14.7-6.9-20.2c-2-5.5-4.6-14.1-6-18.7c-1.4-4.9-4-13.2-6-18.7c-1.7-5.5-4.9-14.7-6.9-20.2
	s-5.8-17.3-8.4-25.9c-2.9-8.6-6.9-20.4-8.9-25.9s-6.6-19.3-10.1-30.2c-10.4-33.7-8.9-33.1-72-33.1
	C1031.9,284.8,1030.2,285.1,1024.1,291.1L1024.1,291.1z M1087.5,420.1c2.3,7.2,6.6,20.7,9.5,30.2c2.6,9.5,6.6,22.5,8.6,28.8
	c7.2,23.6,12.4,40.9,17.3,57.6c2.9,9.5,6.3,20.2,7.5,23.9c5.8,15.3,6.6,15-49.5,15h-52.4l2-12.4c1.2-6.6,3.7-17.3,5.8-23.6
	c2-6.3,6-19.3,8.9-28.8c2.6-9.5,6.6-22.5,8.6-28.8c1.7-6.3,5.8-19.3,8.4-28.8C1078.6,395.7,1079.1,395.4,1087.5,420.1L1087.5,420.1z
	 M422.3,910.2c-2.3,2.3-3.5,16.4-3.5,44.3c0,34.3,0.9,41.5,4.9,44.6c3.7,3.2,24.2,4.3,97.9,4.9c51,0.6,93,2,93,3.2
	c0,1.4-3.5,7.5-7.8,13.5c-14.4,21.3-35.7,51.5-53,76c-9.5,13.5-23,32.8-30.2,43.2c-7.2,10.4-20.2,29.1-29.1,41.8
	c-31.4,44.6-46.9,66.5-61.9,87.8l-15.3,21.6v40.6c0,30.2,1.2,41.8,4,45.2c3.5,4.3,19,4.9,168.7,4.9c155.8,0,165-0.3,169.3-5.2
	c6.6-7.2,7.2-76.9,0.9-85.8c-4-5.2-8.9-5.5-103.7-6.3c-83.8-0.6-99.6-1.4-99.6-4.9c0-3.7,13-23,49-73.4
	c19-26.2,47.5-66.5,75.4-105.7c11.5-16.4,28.8-40.3,38.3-53.3c9.8-13.2,21.6-30.2,26.8-37.7l9.2-13.8v-40c0-32.5-0.9-40.9-4.6-44.3
	c-4-4-22.7-4.6-165-4.6C465.2,906.8,424.9,907.6,422.3,910.2L422.3,910.2z M909.5,912.8c-5.2,5.8-5.5,13.8-5.5,231.5
	s0.3,225.8,5.5,231.5c5.2,5.5,8.4,6,46.4,6c36,0,41.5-0.6,45.5-5.2c4.3-4.9,4.9-18.4,4.9-133.9c0-101.1,0.9-128.7,3.7-128.7
	c1.7,0,4.9,2.9,6.6,6.6c2.9,6,29.9,57.9,59,113.7c7.2,13.8,24.2,46.4,37.7,72.6s26.8,51,29.1,55.3c9.2,17.9,14.7,19.6,60.8,19.6
	h41.8l4.6-8.6c3.7-7.2,4.3-36.9,4.3-228.9s-0.6-221.7-4.3-228.9l-4.6-8.6h-42.3c-29.4,0-43.8,1.2-46.1,3.5
	c-2.6,2.6-3.5,36-3.5,132.2c0,70.8-1.2,129.6-2.3,130.4c-3.5,2-11.8-10.1-24.8-35.7c-6-11.8-17-33.4-24.5-47.5
	c-7.5-14.4-22.2-42-32.5-61.9c-25.3-48.4-45.2-86.1-50.7-96.5c-2.6-4.9-8.1-12.1-11.8-16.7l-7.2-7.8h-42
	C917.9,906.8,914.7,907.1,909.5,912.8z"/>
</svg>
