<?xml version="1.0" encoding="utf-8"?>
<!-- Generator: Adobe Illustrator 28.2.0, SVG Export Plug-In . SVG Version: 6.00 Build 0)  -->
<svg version="1.1" id="Layer_1" xmlns="http://www.w3.org/2000/svg" xmlns:xlink="http://www.w3.org/1999/xlink" x="0px" y="0px"
	 viewBox="0 0 2500 2500" style="enable-background:new 0 0 2500 2500;" xml:space="preserve">
<style type="text/css">
	.st0{fill:#FFFFFF;}
	.st1{fill:url(#SVGID_1_);}
</style>
<path class="st0" d="M1762.9,1293.4c-34.2,7.8-124.1,12.3-124.1,12.3l-11.4,35.6c0,0,44.8-3.8,77.6-0.5c0,0,10.7-1.2,11.9,12.1
	c0.2,8.6-0.1,17.1-0.9,25.6c0,0-0.7,8.1-12.1,10c-12.3,2.1-96.8,5.2-96.8,5.2l-13.8,46.3c0,0-5,10.7,6.4,7.6
	c10.7-2.8,99.2-19.5,110.8-17.1c12.3,3.1,26.1,19.5,22.1,34.6c-4.7,18.5-93,75-146.8,70.9c0,0-28.2,1.9-52.2-36.3
	c-22.3-36.3,8.5-105.3,8.5-105.3s-14-32.3-3.8-42.9c0,0,6.2-5.5,23.7-6.9l21.6-44.8c0,0-24.7,1.7-39.4-16.4
	c-13.8-17.3-14.7-25.1-4.3-29.9c11.1-5.5,113.9-24.2,184.6-21.8c0,0,24.7-2.4,45.8,40.3C1770,1272,1780.4,1289.3,1762.9,1293.4
	L1762.9,1293.4z M1497,1465.6c-9,21.3-33,44.1-62.6,29.9c-29.7-14.2-76.1-109.8-76.1-109.8s-17.8-35.6-21.1-34.9c0,0-3.8-6.9-6.2,32
	c-2.4,38.9,0.5,114.6-14.9,126.4c-14.7,11.9-32.5,7.1-41.8-6.9c-8.3-13.8-11.9-46.5-7.4-103.9c5.5-57.4,18.7-118.6,35.8-137.8
	c17.1-19.2,30.8-5.2,36.1-0.2c0,0,22.8,20.6,60.5,81.4l6.6,11.1c0,0,34.2,57.4,37.7,57.2c0,0,2.8,2.6,5.2,0.7
	c3.6-0.9,2.1-19.5,2.1-19.5s-7.1-62.4-38.2-168.2c0,0-4.7-13.3-1.4-25.6c3.3-12.3,15.7-6.6,15.7-6.6s48.4,24.2,71.6,103
	C1521.6,1373.3,1506,1444.2,1497,1465.6L1497,1465.6z M1259.3,1263.2c-4,8.1-6.4,19.7-26.8,22.8c0,0-195.2,13.3-204.5,27
	c0,0-6.9,8.1,3.8,10.4c10.7,2.4,54.8,8.1,76.1,9.3c22.8,0.2,99.6,0.9,127.1,35.3c0,0,16.4,16.4,15.7,53.4c-0.7,38-7.4,51.2-22.1,65
	c-15.4,12.8-147.8,72.1-233.2-19c0,0-39.4-43.9,13.5-77.1c0,0,38.2-23,135.2,4c0,0,29.4,10.7,28,21.3c-1.7,11.4-24.2,23.5-56.9,22.8
	c-31.8-0.9-55-16.1-50.5-13.8c4.3,1.7-34.2-18.5-46-4.7c-11.9,12.6-9,20.4,2.6,28.2c29.7,16.8,144.2,10.9,178.4-27
	c0,0,13.5-15.4-7.1-28c-20.6-11.9-79.7-19-102.7-20.2c-22.1-1.2-104.1,0.2-116-21.6c0,0-11.9-14.7,1.2-56.5
	c13.8-43.6,109.4-60.5,150.6-64.3c0,0,113.6-4,134.5,19.2C1261.6,1254.3,1261.3,1259.1,1259.3,1263.2L1259.3,1263.2z M936.6,1519.2
	c-13.8,10.2-42.9,5.7-51.2-5.7c-8.3-10.2-11.1-50.8-9.5-114.3c1.7-64.3,3.1-144,16.8-156.6c14.7-12.8,23.7-1.7,29.4,7.1
	c6.2,8.5,13.5,18,15.2,38.2c1.7,20.2,6.2,126,6.2,126S949.7,1509.2,936.6,1519.2z M966.3,1178.1c-40.1,13.3-67.6,8.8-90.9-1.2
	c-10.2,17.8-16.1,23.2-24,24.4c-11.4,1.2-21.6-17.1-23.5-23c-1.9-4.5-7.4-12.1-0.7-30.1c-22.8-20.4-24.4-47.9-20.6-66.4
	c5.7-21.3,44.1-102.5,161.1-112c0,0,57.2-4.3,66.9,26.3h1.7c0,0,55.5,0.2,54.3,49.6C1089.9,1095.3,1028.9,1157,966.3,1178.1
	L966.3,1178.1z M857.2,1068.3c-11.9,19-12.3,30.4-6.9,38.2c13.5-20.6,38.2-53.1,74.5-77.8C896.8,1031,873.3,1043.1,857.2,1068.3z
	 M1018.7,1036.5c-36.8,5.5-93.7,54.8-120.7,95.1c41.5,7.6,114.8,4.7,147.3-61.4C1045.1,1070.2,1060.7,1029.1,1018.7,1036.5z
	 M2016.9,1418.6c-22.1,38.4-84,118.6-166.5,99.9c-27.3,66.2-50.1,132.8-63.1,232.9c0,0-2.8,19.5-19,12.6
	c-15.9-5.7-42.5-32.3-47.7-69c-5.7-48.4,15.9-130.2,59.8-223.9c-12.8-20.9-21.6-50.8-14-93.2c0,0,11.1-78.8,90.1-149.9
	c0,0,9.5-8.3,14.9-5.7c6.2,2.6,3.3,28.2-1.7,40.6c-5,12.3-40.3,73.5-40.3,73.5s-22.1,41.3-15.9,73.8
	c41.5-63.8,135.9-192.6,194.5-152.1c19.7,14,28.7,44.6,28.7,77.6C2036.6,1364.8,2029.7,1395.6,2016.9,1418.6L2016.9,1418.6z
	 M1999.8,1317.6c0,0-3.3-25.4-28,2.6c-21.3,23.5-59.8,67.8-90.9,127.9c32.5-3.6,63.8-21.3,73.3-30.4
	C1969.7,1403.9,2005.5,1366.9,1999.8,1317.6L1999.8,1317.6z M848.2,1349.8c-4.5,57.4-26.6,154-182.9,201.6
	c-103.2,31.1-200.7,16.1-253.8,2.6c-1.2,21.1-3.6,30.1-6.9,33.7c-4.5,4.5-38.2,24-56.7-3.6c-8.3-13-12.6-36.8-14.9-57.9
	c-119.6-55-174.6-134.3-176.7-137.8c-2.6-2.6-29.9-31.1-2.6-65.9c25.6-31.5,109.4-63.1,184.8-75.9c2.6-64.5,10.2-113.2,19.2-135.5
	c10.9-25.9,24.7-2.6,36.5,14.9c10,13,15.9,69.3,16.4,114.1c49.3-2.4,78.5,1.2,133.6,11.1c71.6,13,119.6,49.6,115.3,91.1
	c-3.1,40.8-40.6,57.6-54.8,58.8c-14.9,1.2-38.2-9.5-38.2-9.5c-15.9-7.6-1.2-14.2,18-22.5c20.9-10.2,16.1-20.6,16.1-20.6
	c-7.8-22.8-100.8-38.7-193.3-38.7c-0.5,51,2.1,135.7,3.3,185c64.8,12.3,113.2,10,113.2,10s236.3-6.6,243.4-157.5
	c7.1-150.9-235.6-296-415.1-342.1c-179.3-47-280.9-14.2-289.6-9.7c-9.5,4.7-0.7,6.2-0.7,6.2c9,1.6,17.9,4,26.6,7.1
	c17.8,5.7,4,14.9,4,14.9c-30.6,9.7-65,3.6-71.6-10.4c-6.6-14,4.5-26.6,17.3-44.6c12.8-19,26.8-18.3,26.8-18.3
	c221.8-76.9,492,62.2,492,62.2C809.7,1141.1,852.9,1291.5,848.2,1349.8z M178.7,1342c-25.1,12.3-7.8,30.1-7.8,30.1
	c47.2,50.8,105.3,82.6,160.6,102.2c6.4-87.5,5.5-118.4,6.2-162.5C251.3,1317.8,201.5,1331.6,178.7,1342L178.7,1342z M2486.6,1324
	v31.3c0.1,6.8-5.4,12.3-12.1,12.3c-0.1,0-0.1,0-0.2,0h-149.2c0,7.8,0.2,14.7,0.2,21.1c0.2,42.2-1.9,84.4-6.4,126.4
	c-0.6,6.3-5.8,11.1-12.1,11.1h-32.3c-3.3,0-6.4-1.4-8.5-3.8c-2.2-2.4-3.3-5.7-2.8-9c4.5-41.4,6.8-83.1,6.6-124.8
	c0-6.6,0-13.5-0.2-21.1H2122c-6.8,0.1-12.3-5.4-12.3-12.1c0-0.1,0-0.1,0-0.2V1324c-0.1-6.8,5.4-12.3,12.1-12.3c0.1,0,0.1,0,0.2,0
	h145.4c-2.9-50.4-9.4-100.5-19.2-149.9c-0.5-3,0.3-6.1,2.1-8.5c1.9-2.4,4.8-3.8,7.8-3.8h34.9c5.4,0,10.1,3.9,11.1,9.3
	c9.6,50.5,15.9,101.6,19,153h151.1C2481,1311.8,2486.5,1317.2,2486.6,1324L2486.6,1324z"/>
<radialGradient id="SVGID_1_" cx="1114.5234" cy="1367.1129" r="760.12" gradientTransform="matrix(2.3722 0 0 2.3722 -390.5878 -2153.1709)" gradientUnits="userSpaceOnUse">
	<stop  offset="1.000000e-02" style="stop-color:#FFFFFF"/>
	<stop  offset="3.000000e-02" style="stop-color:#CBFFFF"/>
	<stop  offset="6.000000e-02" style="stop-color:#96FFFF"/>
	<stop  offset="8.000000e-02" style="stop-color:#68FFFF"/>
	<stop  offset="0.11" style="stop-color:#43FFFF"/>
	<stop  offset="0.14" style="stop-color:#25FFFF"/>
	<stop  offset="0.16" style="stop-color:#11FFFF"/>
	<stop  offset="0.19" style="stop-color:#04FFFF"/>
	<stop  offset="0.22" style="stop-color:#00FFFF"/>
	<stop  offset="1" style="stop-color:#0000FF;stop-opacity:0"/>
</radialGradient>
<path class="st1" d="M2283.6,1075.6c-216.6-532.7-824-788.9-1356.7-572.3c-193.4,78.6-358.7,213.6-474.4,387.3
	c-2.1,3.1-2.6,7.1-1.4,10.7c1.1,3.6,4,6.5,7.6,7.6l27,9.3c1.5,0.5,3.1,0.7,4.7,0.7c5-0.1,9.7-2.5,12.6-6.6
	C686.5,641.8,992,479.9,1318.8,480c396.4,0.1,754.3,237.3,908.8,602.3c2.2,5.3,7.3,8.7,13,8.8h32.3c3.7,0,7.2-1.8,9.3-5
	C2284.5,1083.1,2285,1079.1,2283.6,1075.6L2283.6,1075.6z M490.4,910.7c-0.7,0-1.5-0.2-2.1-0.5C489,910.5,489.7,910.7,490.4,910.7z
	 M2234,1086.8c0.7,0.5,1.4,0.9,2.1,1.2C2235.4,1087.5,2234.7,1087.2,2234,1086.8z"/>
</svg>
