<?xml version="1.0" encoding="utf-8"?>
<!-- Generator: Adobe Illustrator 28.2.0, SVG Export Plug-In . SVG Version: 6.00 Build 0)  -->
<svg version="1.1" id="Layer_1" xmlns="http://www.w3.org/2000/svg" xmlns:xlink="http://www.w3.org/1999/xlink" x="0px" y="0px"
	 viewBox="0 0 2500 2500" style="enable-background:new 0 0 2500 2500;" xml:space="preserve">
<style type="text/css">
	.st0{fill:#CC0000;}
</style>
<path class="st0" d="M78.7,941.8h537.7l-22.8,175.9H56.9L78.7,941.8z M47.2,1182.3h538.3l-16.6,143.1H232.5l-8.8,68.4h337.1
	l-20.9,163.4H0.3L47.2,1182.3L47.2,1182.3z M625.2,1117.7c0,0,3.7-60,18.7-91.2c14.1-29.4,32.8-50.6,64.4-68.4
	c18.7-10,52.2-16.2,52.2-16.2H1729c0,0,40.6,0.6,58.1,7.8c18.7,7.8,45.9,19.4,60.3,54.4c14.1,33.4,11.3,44.4,11.3,77.8
	c0,32.8-0.9,35.9-0.9,35.9H625.2V1117.7z M616.4,1183.9h495.5c0,0,44.1,0,64.4,12.2c21.2,14.1,30.9,31.2,37.2,58.4
	c5.9,27.2-10.6,164.3-20.3,197.8c-10.6,32.8-23.1,63.7-74.4,89.4c-45.9,23.4-115.6,15.6-115.6,15.6h-428l25.3-163.4h400.8l8.1-69.4
	H733c0,0-45,6.2-87.2-30.3c-25.6-21.9-28.4-55.3-30-70C613.9,1215.8,616.4,1183.9,616.4,1183.9L616.4,1183.9z M1260.9,1183.9h584.5
	c0,0-5.3,67.5-21.2,91.5c-15.9,25-30,38.4-56.6,44.4c-27.2,6.2-67.8,6.2-67.8,6.2h-254.3l-26.6,231.2h-204L1260.9,1183.9z
	 M1885.2,1119.2h607.3c0,0,11.6-53.1,5.3-86.5c-6.2-33.4-21.2-55.9-45.9-72.2c-32.5-22.8-91.8-18.7-90.9-18.7h-451.1L1885.2,1119.2
	L1885.2,1119.2z M1877.4,1183.9h201.2l-45.9,373.3H1833L1877.4,1183.9L1877.4,1183.9z M2281.6,1185.5h199.3l-45.9,371.8h-198.4
	L2281.6,1185.5L2281.6,1185.5z"/>
</svg>
