<?xml version="1.0" encoding="utf-8"?>
<!-- Generator: Adobe Illustrator 28.2.0, SVG Export Plug-In . SVG Version: 6.00 Build 0)  -->
<svg version="1.1" id="Layer_1" xmlns="http://www.w3.org/2000/svg" xmlns:xlink="http://www.w3.org/1999/xlink" x="0px" y="0px"
	 viewBox="0 0 2500 2500" style="enable-background:new 0 0 2500 2500;" xml:space="preserve">
<style type="text/css">
	.st0{fill:#FFFFFF;}
	.st1{fill:url(#SVGID_1_);}
</style>
<g>
	<path class="st0" d="M410.2,1441.1H307.7v-146.3h-66.4v146.3H135.9v-377.4H241v140.9h66.4v-140.9H410L410.2,1441.1z M880.8,1442.8
		c105.1,0,190.9-87.4,190.9-193.9c0-108.2-85.8-191.8-190.9-191.8c-106.5,0-160.3,77.3-173.4,108.9c0-46.7-46.7-102.6-100.9-102.6
		H431.3v377.8h163.1c66.4,0,113.1-56.8,113.1-106.5C722.2,1365.4,774.5,1442.8,880.8,1442.8z M581.3,1289.5
		c15.2,0,27.3,14.7,27.3,31.5c0,17.5-12.2,32.5-27.3,32.5H529v-64H581.3z M581.3,1147.7c15.2,0,27.3,14.7,27.3,31.5
		s-12.2,31.5-27.3,31.5H529v-63.1L581.3,1147.7L581.3,1147.7z M650.4,1248.8c12.2-0.7,32-14.7,39.5-23.1c-2.8,10-2.8,42.1,0,52.3
		C681.5,1265.7,662.6,1251.2,650.4,1248.8z M785,1248.8c0-53.3,43.2-96.3,96.5-96c53.5,0.5,96,43.9,95.3,97.4
		c-0.7,52.6-43.2,94.9-96,94.9C827.8,1345.3,785,1302.3,785,1248.8L785,1248.8z M880.8,1324.5c40.9,0,75.2-33.6,75.2-75.7
		s-34.3-75.2-75.2-75.2c-42.1,0-75.7,33.2-75.7,75.2S838.5,1324.5,880.8,1324.5z"/>
	
		<linearGradient id="SVGID_1_" gradientUnits="userSpaceOnUse" x1="-491.7868" y1="187.3553" x2="127.9185" y2="187.3553" gradientTransform="matrix(2.0244 0 0 -2.0244 2104.0732 1629.2822)">
		<stop  offset="0" style="stop-color:#991EEB"/>
		<stop  offset="0.399" style="stop-color:#5822B4"/>
		<stop  offset="0.727" style="stop-color:#5822B4"/>
		<stop  offset="1" style="stop-color:#991EEB"/>
	</linearGradient>
	<path class="st1" d="M1620.3,1197.2c-2.1-91.6-66.8-140-146.3-140c-43.5,0-82.7,14.5-109.6,43c-26.6-28.3-65.9-43-109.6-43
		c-79.4,0-144.2,48.6-146.3,140.2v209.4c0,19.2,15.7,34.6,34.6,34.6h32.7c3.3,0,5.8-2.6,5.8-5.8V1198c1.4-45.1,33.4-68.9,72.9-68.9
		s71.5,23.8,72.9,68.9v208.7c0,19.2,15.7,34.6,34.6,34.6h32.7c3.3,0,5.8-2.6,5.8-5.8v-237.6c1.4-45.1,33.4-68.9,72.9-68.9
		s71.5,23.8,72.9,68.9v208.7c0,19.2,15.7,34.6,34.6,34.6h32.7c3.3,0,5.8-2.6,5.8-5.8L1620.3,1197.2
		C1620.6,1197.7,1620.3,1197.4,1620.3,1197.2z M2358.7,1063.3h-55.6c-15.4,0-29.7,7.7-38.6,20.6L2203,1175
		c-8.2,11.9-25.5,11.9-33.6,0l-61.5-91.1c-8.4-12.9-23.1-20.6-38.6-20.6h-55.6c-3.5,0-5.4,3.7-3.7,6.8l109.8,162.9
		c7.9,11.7,7.9,27.1,0,38.8L2010,1434.7c-2.1,2.8,0.2,6.8,3.7,6.8h55.6c15.4,0,29.7-7.7,38.6-20.6l61.5-91.1
		c8.2-11.9,25.5-11.9,33.6,0l61.5,91.1c8.4,12.9,23.1,20.6,38.6,20.6h55.6c3.5,0,5.4-3.7,3.7-6.8L2252.6,1272
		c-7.9-11.7-7.9-27.1,0-38.8l109.8-162.9C2364.1,1067.3,2362,1063.3,2358.7,1063.3z M1984.8,1063.3h-32.7
		c-16.6,0-30.6,11.7-34.1,27.3c-29.2-22.4-65.7-33.6-105.1-33.6c-96,0-173.8,66.8-173.8,193s77.8,193,173.8,193
		c39.3,0,75.5-11.2,104.7-32.9c1.6,17.5,16.4,31.5,34.6,31.5h32.7c3.3,0,5.8-2.6,5.8-5.8v-366.6
		C1990.5,1065.9,1988.1,1063.3,1984.8,1063.3z M1812.9,1371.3c-57.2,0-103.7-41.8-103.7-121s46.5-121,103.7-121
		s103.7,41.8,103.7,121S1870.1,1371.3,1812.9,1371.3z"/>
</g>
</svg>
