<?xml version="1.0" encoding="utf-8"?>
<!-- Generator: Adobe Illustrator 28.2.0, SVG Export Plug-In . SVG Version: 6.00 Build 0)  -->
<svg version="1.1" id="Layer_1" xmlns="http://www.w3.org/2000/svg" xmlns:xlink="http://www.w3.org/1999/xlink" x="0px" y="0px"
	 viewBox="0 0 2500 2500" style="enable-background:new 0 0 2500 2500;" xml:space="preserve">
<style type="text/css">
	.st0{fill:url(#SVGID_1_);}
</style>
<linearGradient id="SVGID_1_" gradientUnits="userSpaceOnUse" x1="-384.6711" y1="1286.7605" x2="-384.6711" y2="1189.5066" gradientTransform="matrix(8.4737 0 0 -8.4737 4509.5869 11741.6221)">
	<stop  offset="0" style="stop-color:#A3CC39"/>
	<stop  offset="0.698" style="stop-color:#85BD40"/>
	<stop  offset="1" style="stop-color:#65AD45"/>
</linearGradient>
<path class="st0" d="M2499.9,1094.9h-199V1427c0,15-5.8,27.7-15,38.2c-9.3,9.3-22,13.9-37,15H2133c-16.2-1.2-28.9-5.8-38.2-15
	c-9.3-10.4-15-23.1-15-38.2v-332.1h-199v349.5c1.2,46.3,9.3,86.8,28.9,119.2c19.6,32.4,45.1,56.7,78.7,72.9
	c34.7,16.2,74.1,25.5,119.2,25.5h193.3v-2.3c41.7,0,77.5-9.3,107.6-26.6c28.9-18.5,52.1-44,67.1-76.4
	c16.2-32.4,24.3-70.6,24.3-112.3L2499.9,1094.9L2499.9,1094.9z M508.2,1115.8c-34.7-15-72.9-22-114.6-20.8H265.1l-49.8,5.8
	c-11.6,3.5-17.4,5.8-17.4,5.8V838H0.1v824H198v-333.3c1.2-13.9,5.8-27.8,16.2-37c10.4-9.3,22-15,38.2-15h115.7
	c13.9,0,26.6,5.8,37,15c10.4,9.3,15,23.1,16.2,37V1662h197.9v-358.8c0-49.8-10.4-90.3-30.1-121.5
	C568.4,1151.6,541.7,1129.6,508.2,1115.8z M1181.7,1427.1c-1.2,15-5.8,27.8-15,38.2c-10.4,9.3-23.2,13.9-38.2,15h-115.7
	c-15-1.2-27.8-5.8-37-15c-10.4-10.4-15-23.1-16.2-38.2V1095h-198v349.5c0,46.3,9.3,86.8,27.8,119.2c18.5,32.4,45.1,56.7,78.7,72.9
	c34.7,16.2,72.9,25.5,119.2,25.5h194.4v-2.3c41.7,0,77.5-9.3,106.5-26.6c28.9-18.5,52.1-44,68.3-76.4c15-32.4,23.1-70.6,24.3-112.3
	v-349.4h-199.1L1181.7,1427.1L1181.7,1427.1z M1531.2,1662h197.9V838h-197.9V1662L1531.2,1662z"/>
</svg>
