<?xml version="1.0" encoding="utf-8"?>
<!-- Generator: Adobe Illustrator 28.2.0, SVG Export Plug-In . SVG Version: 6.00 Build 0)  -->
<svg version="1.1" id="Layer_1" xmlns="http://www.w3.org/2000/svg" xmlns:xlink="http://www.w3.org/1999/xlink" x="0px" y="0px"
	 viewBox="0 0 2500 2500" style="enable-background:new 0 0 2500 2500;" xml:space="preserve">
<style type="text/css">
	.st0{fill:#FFFFFF;}
</style>
<g>
	<path class="st0" d="M751.1,1604.1c0-116-123.1-172-269.4-172c-156.5,0-300,69.3-352.7,176.8c-14.5,28.6-22.1,60.3-22.1,92.4
		c-0.7,27.8,7,55.1,22.1,78.5c22.6,33.3,62.9,54.3,122,54.3c72.6,0,130.1-39.8,130.1-109.1c0,0,1.1-19.3-21.5-19.3
		c-18.3,0-23.1,12.9-22.6,19.3c2.7,54.3-29.6,97.8-87.1,97.8c-64.5,0-91.4-54.8-91.4-113.4c0-119.9,90.3-199.4,184.4-233.7
		c44-16.6,90.7-24.8,137.6-24.2c106.5,0,193.6,40.8,193.6,150.5c0,91.3-76.9,169.3-168.8,176.2l3.8-12.4
		c18.8-67.2,41.9-140.8,79.6-195.1c2.2-3.3,5.9-8.6,10.2-14l-5.4-6.4c-8,4.9-15.8,10.2-23.1,16.1
		c-176.3,137.6-181.7,524.4-416.7,524.4c-8.1,0-16.2-0.5-24.2-1.6c-48.9-8.1-74.7-40.8-74.7-86.5c0-9.1,3.2-21.5,3.2-28.5
		c0.4-13-9.8-23.8-22.8-24.2h-3c-21,0-29.6,16.7-30.1,40.3c-1.6,68.3,48.9,108,126.9,115.5c8.6,0.5,17.2,1.1,26.3,1.1
		c183.3,0,295.7-138.6,343.5-306.8c24.2-2.8,48.2-7.9,71.5-15C655.4,1761.5,751.1,1704.5,751.1,1604.1L751.1,1604.1z M2497.3,1644.4
		h-64.5l-14.5,33.9l-25.3,56.9h-30l-9.2,19.4h31.2l-37.7,83.3c-26.8,58.6-68.8,116.1-93,116.1c-5.4,0-8.6-2.2-8.6-7.5
		s1.6-10.2,7.5-25.3c7.5-17.7,19.9-43.5,29.1-62.3c13.4-27.4,35-69.9,35-90.8s-13.4-37.6-39.8-37.6c-29.6,0-56.4,17.7-81.2,43.5
		l16.1-38.7h-60.7l-49.5,112.9c-19.9,39.8-60.2,105.9-85.5,105.9c-5.4,0-7.5-3.2-7.5-8.6c0.5-4.8,1.8-9.5,3.8-14
		c2.2-4.8,31.7-74.1,31.7-74.1l53.8-123.1h-65.6l-52.2,119.8c-16.1,37.1-57,99.9-83.3,99.9c-4.6,0.4-8.7-2.9-9.1-7.5v-2.2
		c0-6.4,4.8-18.3,8.6-26.9l27.4-60.2l56.4-123.1h-65l-13,28c-9.7,18.8-25.8,40.8-51.6,40.8c-12.4,0-18.3-4.8-21-9.7
		c-3.8-41.4-30.1-63.4-68.8-63.4c-53.8,0-91.9,31.7-117.2,70.4c-16.6,26.7-29.6,55.4-38.7,85.4c-23.1,38.2-47.3,67.7-66.7,67.7
		c-4.8,0-8.1-2.7-8.1-9.1s6.4-21,8.6-26.3l42.5-90.3c11.8-27.9,19.9-46.2,19.9-64.5c0-19.4-13.4-33.3-35.5-33.3
		c-30.6,0-64,17.7-90.3,46.7c0.9-4.6,1.3-9.3,1.1-14c0-21.5-10.8-32.8-32.8-32.8c-28,0-57,16.7-83.3,46.8l17.2-41.9h-59.1l-50,112.9
		c-23.6,53.2-61.8,105.9-83.3,105.9c-4.8,0-8.1-2.7-8.1-9.1c0-10.2,11.3-35.5,15.6-45.7l66.1-149.9c4.8-11.3-26.9-18.3-67.2-18.3
		s-83.9,20.4-115.1,46.7c-22,18.3-38.2,27.4-46.3,27.4c-2.7,0.6-5.3-1.1-5.8-3.8c-0.1-0.3-0.1-0.7-0.1-1c0-9.1,22-34.9,22-54.8
		c0-9.1-4.8-15-17.2-15c-23.6,0-51.6,22.6-72,46.2l17.2-41.4h-58l-50,112.9c-23.7,53.2-62.9,108.5-84.4,108.5
		c-4.8,0-8.1-2.7-8.1-9.1c0-10.2,10.8-34.9,16.7-47.8l66.1-150.4c4.8-11.3-26.9-18.3-67.2-18.3c-59.7,0-117.7,40.3-148.4,81.7
		c-33.9,44.6-57,91.9-57.5,130.6c-0.5,31.2,15.6,50.5,47.8,50.5c36,0,65.1-28.5,81.7-50c-1,4.2-1.7,8.6-2.2,12.9
		c0,21.5,8.6,37.1,34.9,37.1c23.1,0,53.8-19.4,78.5-50l-19.9,45.7h62.9l61.8-140.3c20.5-45.7,43.6-69.3,50-69.3
		c1.5-0.3,2.9,0.7,3.2,2.2c0,0.2,0,0.4,0,0.5c0,4.8-9.7,17.7-9.7,29.6s6.4,21,23.7,21c13.4,0,28.5-6.4,41.9-15
		c-31.7,43-53.2,88.1-53.2,125.2c-0.5,31.2,15.6,50.5,47.9,50.5c33.9,0,65.6-32.2,82.8-53.7c-0.6,5-1,10-1.1,15
		c0,21,11.8,38.7,36,38.7c26.9,0,48.4-16.7,75.3-49.4l-19.9,45.1h64.5l59.1-133.8c25.8-58,60.8-89.2,78-89.2c4.3-0.4,8.2,2.7,8.6,7
		v1.6c-0.7,6.5-2.5,12.9-5.4,18.8l-84.9,196.2h66.1l60.2-136.5c25.8-58.6,54.3-87.1,75.8-87.1c6.4,0,9.1,3.3,9.1,10.2
		c-0.6,7.5-2.6,14.8-5.9,21.5l-58.1,123.6c-5.3,11.9-8.6,24.6-9.7,37.6c0,18.8,10.2,35.5,39.3,35.5c37.7,0,66.1-28.5,98.4-70.9v9.1
		c2.7,33.9,21.5,63.4,71.5,63.4c59.1,0,107-40.8,136-105.8c11-22.9,18.1-47.4,21-72.6c6.5,3.3,13.7,4.8,21,4.3
		c9.8,0.1,19.4-2.3,28-7l-10.2,22c-11.9,24.7-24.8,52.2-34.9,75.2c-6.4,13.7-10.3,28.4-11.3,43.5c0,23.1,12.9,39.8,39.2,39.8
		s62.4-24.7,88.2-59.7h0.5c-1.7,7.2-2.6,14.6-2.7,22c0,19.4,5.9,37.6,32.8,37.6c31.2,0,55.4-22.6,79-51.1l-19.9,45.2h65.1
		l52.2-118.2c29.6-66.6,59.1-106.9,86.5-106.9c4.7-0.2,8.7,3.4,9.2,8.1v1.6c0,11.3-16.1,41.9-30.6,72.5
		c-13.5,28-23.7,49.4-30.6,66.1c-6.5,14-10.3,29.1-11.3,44.6c0,20.4,11.3,36,36.6,36c37.6,0,75.8-36.5,96.2-63.9
		c-4.6,13.1-7.1,26.9-7.5,40.8c0,37.6,22.5,56.4,54.3,56.4c21.1-0.2,41.6-6.9,58.6-19.3c24.7-17.2,44.6-43,61.3-66.6l-11.3-10.8
		c-15.6,22-32.8,43-50.6,55.9c-9.4,7.9-21.1,12.4-33.3,12.9c-13.4,0-22-7-22-24.2s8.1-40.3,20.4-71.5c0.5-0.5,18.3-40.3,35-78.4
		c14-32.3,28-63.4,30.6-69.9h42.5l8.6-19.4h-41.9L2497.3,1644.4L2497.3,1644.4z M663.5,1954.4c-9.1,0-15.6-3.2-15.6-15
		c0.5-31.7,26.9-88.1,59.7-133.3c23.1-31.2,53.2-54.3,85.5-54.3l-40.9,91.3C721.6,1912,688.3,1954.4,663.5,1954.4z M1065.6,1954.4
		c-9.1,0-15.6-3.2-16.1-15c0.5-31.7,26.9-88.1,59.7-133.3c23.1-31.2,53.2-54.3,85.5-54.3l-40.9,91.3
		C1122.7,1913.6,1091,1954.4,1065.6,1954.4L1065.6,1954.4z M1779.6,1776.6c-1.6,34.9-32.2,119.3-68.3,169.8
		c-14.5,20.4-26.9,26.3-37.6,26.3c-15.1,0-19.4-12.4-17.2-30.6c3.2-31.7,29.6-105.9,66.1-156.9c16.7-23.1,28-32.8,40.9-32.8
		S1780.1,1763.1,1779.6,1776.6L1779.6,1776.6z M1250.6,1250.5c-6.6-2.7-17.4-14.8,0.6-48.6l41.7-87.3c1.3-2.6-1.8-5.9-3.7-3.7
		l-36.5,36.7c-17.3,18-46.6,68.7-52.3,78.1l-44.3,73.3c3.3-0.1,6,2.5,6.2,5.8c0,1.1-0.2,2.2-0.7,3.1l-40.5,68.1
		c-9.9,16.9,7.9,28.7,10.3,24.8c63.7-102.7,100.8-94.4,100.8-94.4l21.3-49.2c1.1-2.5,0-5.4-2.4-6.5
		C1250.8,1250.7,1250.7,1250.6,1250.6,1250.5L1250.6,1250.5z"/>
	<path class="st0" d="M1395.5,393c-364.3,0-659.7,295.2-659.7,659.3c-0.2,141,45,278.2,129,391.5c27.7-11.9,43-29.8,54-43.5
		l122.8-157c2.6-3.3,6-5.9,9.8-7.6l18.5-8l202-256l29.3-22.9l60.2-83.7c1.6-2.2,3.5-4.1,5.6-5.7l26.3-19.1
		c6.5-4.7,15.2-4.8,21.8-0.2l31.8,22.3c16.9,11.9,30.6,27.7,39.9,46.1l127.6,224c2.1,4.3,5.6,7.7,10,9.6
		c25,12.4,40.3,14.6,73.1,50.2c15.3,16.6,82.3,91.5,176.1,207.8c13.6,18.7,31.9,33.5,53,42.9c83.7-113.2,128.8-250.2,128.5-391
		C2055.1,688.2,1759.8,393,1395.5,393L1395.5,393z M913.7,1088.7l-42.8-13.9l-26.4,36.4v-44.9l-42.8-13.9l42.8-13.9v-44.9l26.4,36.4
		l42.8-13.9l-26.4,36.4L913.7,1088.7L913.7,1088.7z M903.6,1235.7l-13.9,42.7l-13.9-42.7h-45l36.4-26.4l-13.9-42.7l36.4,26.4
		l36.4-26.4l-13.9,42.7l36.4,26.4H903.6L903.6,1235.7z M912.2,895.4l13.9,42.7l-36.4-26.4l-36.4,26.4l13.9-42.7L830.8,869h45
		l13.9-42.7l13.9,42.7h45L912.2,895.4L912.2,895.4z M984.4,753.8v44.9L958,762.4l-42.8,13.9l26.4-36.4l-26.4-36.4l42.8,13.9
		l26.4-36.4v45l42.8,13.9L984.4,753.8L984.4,753.8z M1096.8,641.5l-13.9,42.7l-13.9-42.7h-45l36.4-26.4l-13.9-42.7l36.4,26.4
		l36.4-26.4l-13.9,42.8l36.4,26.4L1096.8,641.5L1096.8,641.5z M1238.4,569.3l-26.4,36.4v-44.9l-42.8-13.9L1212,533v-45l26.4,36.4
		l42.8-13.9l-26.4,36.4l26.4,36.4L1238.4,569.3z M1417.9,528.1l13.9,42.7l-36.4-26.4l-36.4,26.4l13.9-42.7l-36.4-26.4h45l13.9-42.7
		l13.9,42.7h45L1417.9,528.1L1417.9,528.1z M1578.9,560.7v44.9l-26.4-36.4l-42.8,13.9l26.4-36.4l-26.4-36.4l42.8,13.9l26.4-36.4
		v44.9l42.8,13.9L1578.9,560.7z M1877.2,1016l42.8,13.9l26.4-36.4v44.9l42.8,13.9l-42.8,13.9v44.9l-26.4-36.4l-42.8,13.9l26.5-36.4
		L1877.2,1016z M1901.2,826.3l13.9,42.7h45l-36.4,26.4l13.9,42.7l-36.4-26.4l-36.4,26.4l13.9-42.7l-36.4-26.4h44.9L1901.2,826.3
		L1901.2,826.3z M1708.1,684.2l-13.9-42.7h-45l36.4-26.4l-13.9-42.7l36.4,26.4l36.4-26.4l-13.9,42.7l36.4,26.4h-45L1708.1,684.2
		L1708.1,684.2z M1806.6,798.7v-44.9l-42.8-13.9l42.8-13.9v-45l26.4,36.4l42.8-13.9l-26.4,36.4l26.4,36.4l-42.8-13.9L1806.6,798.7z
		 M1915.1,1235.7l-13.9,42.7l-13.9-42.7h-45l36.4-26.4l-13.9-42.7l36.4,26.4l36.4-26.4l-13.9,42.7l36.4,26.4H1915.1L1915.1,1235.7z"
		/>
	<path class="st0" d="M1634.4,1433.3c3.2-4.6,8.3-17.2-1.3-40.6l-29.2-78.5c-4-10,4.7-16.1,10.5-9.5c0,0,55.2,63.6,69.4,90.1
		l27.2,45.2c23.4,1.5,88,3.3,150.2,3.3c-6.3-6.2-12.1-12.9-17.3-20c-106.1-131.5-173.4-204.6-174-205.3
		c-21.5-23.4-31.5-27.8-47.8-35.3c-2.4-1.1-4.9-2.2-7.6-3.5v19.9c0.2,1.3-0.8,2.6-2.2,2.7c-1.1,0.1-2.1-0.5-2.6-1.5l-156-273.9
		l-0.4-0.9c-6.5-12.9-16.1-24-27.9-32.3l-15.2-10.7l-74.4,171.6c8.9,0,16.1,7.2,16.1,16.1c0,2.2-0.5,4.4-1.3,6.4l-68.8,159h63.1
		c24.4,0,48.5,4.8,71.1,14l16.7,6.8c0,0-50.2,103.2-50.2,157.5c0.1,9.9,1.5,19.7,4.1,29.3h115.7l-5.3-32.6
		C1542.3,1420.8,1588.2,1428.4,1634.4,1433.3L1634.4,1433.3z"/>
</g>
</svg>
