<?xml version="1.0" encoding="utf-8"?>
<!-- Generator: Adobe Illustrator 28.2.0, SVG Export Plug-In . SVG Version: 6.00 Build 0)  -->
<svg version="1.1" id="Layer_1" xmlns="http://www.w3.org/2000/svg" xmlns:xlink="http://www.w3.org/1999/xlink" x="0px" y="0px"
	 viewBox="0 0 2500 2500" style="enable-background:new 0 0 2500 2500;" xml:space="preserve">
<style type="text/css">
	.st0{fill:#FFFFFF;}
</style>
<path class="st0" d="M352.2,1584.6c-70.7,47.1-47.1,136.7,103.7,179.1c155.5,51.8,325.2,66,490.1,37.7c9.4,0,18.9-4.7,23.6-4.7
	v-160.2l-160.2,51.8c-61.3,18.9-122.5,23.6-183.8,9.4c-47.1-14.1-37.7-42.4,18.9-66l325.2-113.1v-174.4l-452.4,155.5
	C460.6,1518.6,404,1546.9,352.2,1584.6L352.2,1584.6z M1445.6,877.7v457.2c193.2,94.3,344,0,344-245.1
	c0-249.8-89.5-362.9-348.8-452.4c-136.7-47.1-278.1-89.5-419.4-117.8v1362l329.9,99V835.3c0-51.8,0-89.5,37.7-75.4
	C1440.9,774,1445.6,825.8,1445.6,877.7L1445.6,877.7z M2058.3,1476.2c-136.7-47.1-282.8-66-424.2-51.8
	c-75.4,4.7-146.1,23.6-212.1,47.1l-14.1,4.7V1660l306.3-113.1c61.3-18.9,122.5-23.6,183.8-9.4c47.1,14.1,37.7,42.4-18.9,66
	l-471.3,174.4V1957l650.4-240.4c47.1-18.9,89.5-42.4,127.2-80.1C2218.5,1589.3,2204.4,1523.3,2058.3,1476.2L2058.3,1476.2z"/>
</svg>
