<?xml version="1.0" encoding="utf-8"?>
<!-- Generator: Adobe Illustrator 28.2.0, SVG Export Plug-In . SVG Version: 6.00 Build 0)  -->
<svg version="1.1" id="Layer_1" xmlns="http://www.w3.org/2000/svg" xmlns:xlink="http://www.w3.org/1999/xlink" x="0px" y="0px"
	 viewBox="0 0 2500 2500" style="enable-background:new 0 0 2500 2500;" xml:space="preserve">
<style type="text/css">
	.st0{fill:#FFFFFF;}
</style>
<g id="Page-1">
	<g id="Tencent-video" transform="translate(1 10)">
		<path id="Fill-1" class="st0" d="M1338.3,1153.7l-471-360.1c-62.8-47.1-113.8-21.6-113.8,56.9v779c0,78.5,51,104,113.8,56.9
			l471.9-359.1C1401.1,1279.2,1401.1,1200.8,1338.3,1153.7"/>
		<g id="Group-5" transform="translate(47.723 .138)">
			<path id="Fill-3" class="st0" d="M2352.4,1000.8C1864.8,531.8,1232.9,247.3,848.3,105c-184.5-68.7-386.6,47.1-420.9,241.4
				c-2,9.8-2.9,19.6-4.9,29.4c355.2,109.9,928.2,326.7,1371.7,680.9c124.6,99.1,120.7,264.9-8.8,359.1
				c-251.2,181.5-715.3,471-1364.8,687.8c1,8.8,2.9,17.7,3.9,26.5c33.4,199.2,242.3,316.9,428.8,241.4
				c709.4-284.5,1215.7-664.2,1489.4-902.7C2483.9,1347.2,2487.8,1130.3,2352.4,1000.8"/>
		</g>
		<path id="Fill-6" class="st0" d="M470,375.6c-3.9-1-8.8-2.9-12.8-3.9C287.5,319.7,101,408,69.6,556.1
			C-51,1123.2,6.8,1625.6,66.7,1921.9c30.4,152.1,222.7,242.3,394.4,184.5c2-1,3.9-1,5.9-2C405.2,1718.8,349.3,1088.9,470,375.6"/>
	</g>
</g>
</svg>
