<?xml version="1.0" encoding="utf-8"?>
<!-- Generator: Adobe Illustrator 28.2.0, SVG Export Plug-In . SVG Version: 6.00 Build 0)  -->
<svg version="1.1" id="Layer_1" xmlns="http://www.w3.org/2000/svg" xmlns:xlink="http://www.w3.org/1999/xlink" x="0px" y="0px"
	 viewBox="0 0 2500 2500" style="enable-background:new 0 0 2500 2500;" xml:space="preserve">
<style type="text/css">
	.st0{fill:#D21E1E;}
</style>
<g>
	<path class="st0" d="M152.6,730.4c14.8-25.1,44-41.5,73.2-39.7c330.6,0.1,661.1-0.1,991.7,0.1c-48.8,71.7-97,143.8-145.7,215.6
		c-7.7,11.3-14.5,23.7-25.8,32c-15.4,11.7-34.7,19.7-54.4,18.6c-330.5-0.2-660.9,0.3-991.4-0.2C50.3,880.7,102,805.8,152.6,730.4z
		 M1406.5,710.4c14.2-11.5,31.9-20,50.5-19.8c218.6,0.1,437.1,0,655.7,0c38.4,0.7,77-1.7,115.3,2.1c73.4,9.7,143.9,44.2,194.5,98.6
		c44.5,47.3,72.8,110.1,76.3,175.2c5.7,75.6-20.5,150.7-63.6,212.1c-41.4,59.2-97.2,107.8-160,143.2c-66.3,37.3-141.4,60-217.7,61.2
		c-192.3-0.1-384.6,0.1-576.9-0.1c51.4-76.3,103-152.5,154.5-228.8c13.6-22.1,38.9-35.9,64.6-37.7c132.6,0,265.2,0,397.9,0
		c35.4-0.1,69.2-19.8,89.1-48.7c8.6-13,14.6-28.2,14.3-44c0.4-19.6-8.3-39.9-24.3-51.6c-14.7-11-33.4-15.9-51.6-15.3
		c-295.9,0.1-591.8-0.1-887.7,0.1c47.6-72.4,96.9-143.8,145.1-215.8C1390,730.5,1396.1,718.6,1406.5,710.4L1406.5,710.4z"/>
	<path class="st0" d="M483.8,1116.4c98.9-0.1,197.8,0,296.7,0c-21.8,204.1-43.3,408.3-64.4,612.5
		c129.4-192.4,259.4-384.4,388.9-576.7c14.3-20.9,38.9-34.5,64.1-35.8H1456c-148,219.5-296.1,438.9-444.1,658.3
		c-14.6,20.7-39.4,32.5-64.2,34.8H502.5c-4-0.4-12.1-1.3-16.1-1.6c-22.4-1.6-43.5-14.8-55.3-33.8c-9.3-14.4-12.8-32.3-11.2-49.2
		c13.8-133.6,27.9-267.1,42-400.7c2.2-29.6,7.1-59,9-88.7C476,1195.9,478.8,1156,483.8,1116.4L483.8,1116.4z M1349.7,1576.8
		c14.7-20.6,39.6-33.7,64.8-34.7c311.9,0.2,623.7-0.2,935.6,0.2c-51.4,76-102.7,152.1-154,228.2c-14.4,23.8-42.2,38.3-69.9,38.5
		l9.9,0.6h-941.2c0.5-2.4,1.4-4.7,2.6-6.8C1248.2,1727.4,1299,1652.1,1349.7,1576.8z"/>
</g>
</svg>
